# xmcd CD database file
#
# Track frame offsets:
#	150
#	19870
#	35415
#	51331
#	76920
#	91844
#	116530
#	131856
#	155313
#
# Disc length: 2329 seconds
#
# Revision: 0
# Processed by: cddbd v1.5.1PL2 Copyright (c) Steve Scherf et al.
# Submitted via: CDex 1.51
#
DISCID=6a091709
DTITLE=Köge Cajun Blues - Live at the Porch
DYEAR=2006
DGENRE=Blues
TTITLE0=Charmeaux one-step
TTITLE1=J'al Passé devant Ta Porte
TTITLE2=Drunkards Blues
TTITLE3=Attention Waltz
TTITLE4=Blues a Be Be
TTITLE5=Dans la Louisiana
TTITLE6=Churchpoint Breakdown
TTITLE7=Cherokee Waltz
TTITLE8=Midland Twostep
EXTD=YEAR: 2006
EXTT0=
EXTT1=
EXTT2=
EXTT3=
EXTT4=
EXTT5=
EXTT6=
EXTT7=
EXTT8=
PLAYORDER=
